<svg width="63" height="62" viewBox="0 0 63 62" fill="none" xmlns="http://www.w3.org/2000/svg">
<path d="M29.1068 61.9035C23.4034 61.4804 17.9191 59.5261 13.23 56.246C6.74686 51.7288 2.23213 44.8997 0.609969 37.1566C-0.319612 32.5042 -0.185226 27.7012 1.00305 23.1083C1.45957 21.0405 2.27877 19.0703 3.4225 17.2893C4.09075 16.7458 2.34937 16.7773 25.6004 16.8029L46.6306 16.8266L46.9942 17.0137C47.3985 17.2177 47.7256 17.5481 47.9258 17.9549C48.0811 18.2542 48.0909 18.3941 48.0496 20.8359C48.0848 21.9783 48.0191 23.1216 47.8531 24.2524C47.6667 25.5102 47.2791 26.7297 46.7053 27.8639C45.7521 29.7279 44.1849 31.2042 42.2693 32.0426C41.5852 32.3146 41.0145 32.8128 40.6517 33.4545C40.5061 33.9107 40.3957 34.3775 40.3216 34.8506C40.1819 35.7754 39.9783 36.6893 39.7123 37.5858C39.2108 39.4799 38.1732 41.1882 36.7245 42.5047C35.2759 43.8213 33.4781 44.6899 31.5478 45.0058C30.8639 45.1279 29.8163 45.1436 20.2486 45.1673L9.70796 45.2007L10.101 45.7442C12.7056 49.3831 16.1953 52.2945 20.2388 54.2019C22.8075 55.4001 25.5501 56.1811 28.3639 56.5157C30.4492 56.7105 32.5482 56.7105 34.6336 56.5157C39.2499 55.9454 43.6384 54.1809 47.3676 51.3958C50.643 48.9382 53.289 45.7364 55.0879 42.054C56.3054 39.5363 57.1022 36.8354 57.4464 34.059C57.643 32.021 57.643 29.9688 57.4464 27.9309C56.88 23.3838 55.1049 19.0727 52.3067 15.4481C49.4178 11.6946 45.5594 8.80392 41.149 7.0889C40.2755 6.73827 39.3799 6.44555 38.4681 6.21261C36.2027 5.56635 33.8536 5.26302 31.4987 5.31268C29.8101 5.26997 28.122 5.41994 26.4672 5.75969C22.9529 6.43472 19.613 7.82108 16.6518 9.83396L15.8656 10.3775H12.7898C9.39152 10.3775 9.25198 10.3617 9.0692 9.89894C8.89624 9.49329 9.02005 9.24911 9.74726 8.55989C15.7502 2.9694 23.6687 -0.0945459 31.8638 0.00222436C40.0589 0.0989947 47.9032 3.34908 53.773 9.07976C56.6932 11.9302 59.0141 15.3377 60.5988 19.1012C62.1835 22.8648 63 26.9082 63 30.993C63 35.0777 62.1835 39.1212 60.5988 42.8847C59.0141 46.6483 56.6932 50.0558 53.773 52.9062C50.5421 56.0849 46.6687 58.5328 42.4137 60.0849C38.1588 61.6369 33.6212 62.257 29.1068 61.9035ZM29.7259 39.7717C30.5146 39.5906 31.25 39.2267 31.8729 38.7093C32.4959 38.1919 32.989 37.5353 33.3128 36.7923C33.6844 35.9897 33.9081 35.1264 33.9732 34.2441V33.8306H5.49997L5.5491 34.057C5.57465 34.1791 5.63164 34.569 5.68274 34.9176C5.89892 36.2638 6.22163 37.5906 6.64778 38.8855L7.00941 40.006L18.0375 39.9824L29.0655 39.9587L29.7259 39.7717ZM36.3573 28.368C37.4311 28.1393 38.4245 27.6276 39.235 26.8858C40.0455 26.1439 40.6438 25.1989 40.9682 24.148C41.2083 23.4788 41.3338 22.7738 41.3396 22.0627C41.3219 22.039 33.5781 22.0213 24.1421 22.0213H6.97993L6.82269 22.4683C6.16706 24.3688 5.7273 26.3373 5.51175 28.3365V28.5531L20.6711 28.5295C34.7731 28.5138 35.8718 28.498 36.3573 28.368Z" fill="#1F63D9"/>
</svg>
