<svg width="198" height="198" viewBox="0 0 198 198" fill="none" xmlns="http://www.w3.org/2000/svg">
    <circle cx="99" cy="99" r="99" fill="white"/>
    <path d="M100.862 77.7695C116.387 77.263 132.054 77.7191 147.596 77.6973C145.341 86.2108 142.019 94.4501 139.017 102.724C132.52 120.632 127.987 137.75 110.36 147.973C106.627 150.137 102.693 151.662 98.6179 153.052C80.6917 159.169 53.175 156.51 45.0875 156.066C37 155.622 45.0875 156.066 37 155.622C37.5083 152.52 38.6613 149.557 39.6741 146.592C41.8612 140.19 45.0042 132.33 46.5237 125.867C52.1594 126.706 46.5237 125.867 52.2496 126.706C59.5084 127.269 67.4437 127.413 74.6545 126.278C80.1687 124.497 84.3432 122.189 87.0697 116.857C89.1475 112.794 90.4176 108.277 91.8627 103.96C93.7098 98.419 95.6083 92.896 97.5584 87.3907C98.6543 84.1961 99.5948 80.8992 100.862 77.7695Z" fill="#1D1D1D"/>
    <path d="M147.72 41.1361C151.99 40.9443 156.306 41.0306 160.582 41C157 51 160.582 41 151.093 69.9575C139.802 69.7544 128.511 69.6775 117.219 69.7267C112.686 69.6902 132.5 69.7371 102 69.7267C103.629 63.7717 108.58 57.5926 112.791 53.0694C121.777 43.4172 135.187 41.5817 147.72 41.1361Z" fill="#1D1D1D"/>
</svg>
